<?xml version="1.0" encoding="UTF-8" standalone="no"?>
<!DOCTYPE svg PUBLIC "-//W3C//DTD SVG 1.1//EN"
 "http://www.w3.org/Graphics/SVG/1.1/DTD/svg11.dtd">
<!-- Generated by graphviz version 14.1.0 (20251206.1807)
 -->
<!-- Title: implant_flow Pages: 1 -->
<svg width="905pt" height="1220pt"
 viewBox="0.00 0.00 905.00 1220.00" xmlns="http://www.w3.org/2000/svg" xmlns:xlink="http://www.w3.org/1999/xlink">
<g id="graph0" class="graph" transform="scale(1 1) rotate(0) translate(21.6 1198.78)">
<title>implant_flow</title>
<polygon fill="#f5f5f5" stroke="none" points="-21.6,21.6 -21.6,-1198.78 883.6,-1198.78 883.6,21.6 -21.6,21.6"/>
<g id="clust1" class="cluster">
<title>cluster_data</title>
<path fill="#ededed" stroke="#777777" d="M20,-527.95C20,-527.95 326,-527.95 326,-527.95 332,-527.95 338,-533.95 338,-539.95 338,-539.95 338,-1148.55 338,-1148.55 338,-1154.55 332,-1160.55 326,-1160.55 326,-1160.55 20,-1160.55 20,-1160.55 14,-1160.55 8,-1154.55 8,-1148.55 8,-1148.55 8,-539.95 8,-539.95 8,-533.95 14,-527.95 20,-527.95"/>
<text xml:space="preserve" text-anchor="middle" x="173" y="-1144.2" font-family="SimSun" font-size="13.00">(1) 口腔种植科语音—病历匹配数据集构建与标准化处理</text>
</g>
<g id="clust2" class="cluster">
<title>cluster_model</title>
<path fill="#ededed" stroke="#777777" d="M471,-8C471,-8 820,-8 820,-8 826,-8 832,-14 832,-20 832,-20 832,-462.08 832,-462.08 832,-468.08 826,-474.08 820,-474.08 820,-474.08 471,-474.08 471,-474.08 465,-474.08 459,-468.08 459,-462.08 459,-462.08 459,-20 459,-20 459,-14 465,-8 471,-8"/>
<text xml:space="preserve" text-anchor="middle" x="645.5" y="-457.73" font-family="SimSun" font-size="13.00">(2) 专科适配的 ASR–LLM 协同模型搭建与模板化生成机制开发</text>
</g>
<g id="clust3" class="cluster">
<title>cluster_system</title>
<path fill="#ededed" stroke="#777777" d="M368,-897.14C368,-897.14 803,-897.14 803,-897.14 809,-897.14 815,-903.14 815,-909.14 815,-909.14 815,-1157.18 815,-1157.18 815,-1163.18 809,-1169.18 803,-1169.18 803,-1169.18 368,-1169.18 368,-1169.18 362,-1169.18 356,-1163.18 356,-1157.18 356,-1157.18 356,-909.14 356,-909.14 356,-903.14 362,-897.14 368,-897.14"/>
<text xml:space="preserve" text-anchor="middle" x="585.5" y="-1152.83" font-family="SimSun" font-size="13.00">(3) 系统集成与多维度临床验证（双重测试体系）</text>
</g>
<g id="clust4" class="cluster">
<title>cluster_eval</title>
<path fill="#ededed" stroke="#777777" d="M582,-519.33C582,-519.33 786,-519.33 786,-519.33 792,-519.33 798,-525.33 798,-531.33 798,-531.33 798,-859.14 798,-859.14 798,-865.14 792,-871.14 786,-871.14 786,-871.14 582,-871.14 582,-871.14 576,-871.14 570,-865.14 570,-859.14 570,-859.14 570,-531.33 570,-531.33 570,-525.33 576,-519.33 582,-519.33"/>
<text xml:space="preserve" text-anchor="middle" x="684" y="-854.79" font-family="SimSun" font-size="13.00">(4) 多维度评估、消融实验与迭代优化</text>
</g>
<!-- data_src -->
<g id="node1" class="node">
<title>data_src</title>
<path fill="white" stroke="#333333" stroke-width="1.2" d="M246.57,-1125.8C246.57,-1125.8 99.43,-1125.8 99.43,-1125.8 93.43,-1125.8 87.42,-1119.8 87.42,-1113.8 87.42,-1113.8 87.42,-1091.78 87.42,-1091.78 87.42,-1085.78 93.42,-1079.78 99.42,-1079.78 99.42,-1079.78 246.57,-1079.78 246.57,-1079.78 252.57,-1079.78 258.57,-1085.78 258.57,-1091.78 258.57,-1091.78 258.57,-1113.8 258.57,-1113.8 258.57,-1119.8 252.57,-1125.8 246.57,-1125.8"/>
<text xml:space="preserve" text-anchor="middle" x="173" y="-1108.64" font-family="SimSun" font-size="12.00">数据来源与构建</text>
<text xml:space="preserve" text-anchor="middle" x="173" y="-1091.39" font-family="SimSun" font-size="12.00">虚拟病例开发 + 真实病例测试</text>
</g>
<!-- virtual -->
<g id="node2" class="node">
<title>virtual</title>
<path fill="white" stroke="#333333" stroke-width="1.2" d="M141.7,-994.28C141.7,-994.28 28.3,-994.28 28.3,-994.28 22.3,-994.28 16.3,-988.28 16.3,-982.28 16.3,-982.28 16.3,-943.01 16.3,-943.01 16.3,-937.01 22.3,-931.01 28.3,-931.01 28.3,-931.01 141.7,-931.01 141.7,-931.01 147.7,-931.01 153.7,-937.01 153.7,-943.01 153.7,-943.01 153.7,-982.28 153.7,-982.28 153.7,-988.28 147.7,-994.28 141.7,-994.28"/>
<text xml:space="preserve" text-anchor="middle" x="85" y="-977.12" font-family="SimSun" font-size="12.00">虚拟病例（训练/验证）</text>
<text xml:space="preserve" text-anchor="middle" x="85" y="-959.87" font-family="SimSun" font-size="12.00">专家构建 420 例</text>
<text xml:space="preserve" text-anchor="middle" x="85" y="-942.62" font-family="SimSun" font-size="12.00">完整病程信息</text>
</g>
<!-- data_src&#45;&gt;virtual -->
<g id="edge1" class="edge">
<title>data_src&#45;&gt;virtual</title>
<path fill="none" stroke="#333333" stroke-width="1.4" d="M158.67,-1079.29C145.84,-1059.16 126.72,-1029.14 111.17,-1004.73"/>
<polygon fill="#333333" stroke="#333333" stroke-width="1.4" points="114.22,-1003 105.89,-996.44 108.31,-1006.76 114.22,-1003"/>
</g>
<!-- real -->
<g id="node3" class="node">
<title>real</title>
<path fill="white" stroke="#333333" stroke-width="1.2" d="M316.07,-994.28C316.07,-994.28 201.93,-994.28 201.93,-994.28 195.93,-994.28 189.93,-988.28 189.93,-982.28 189.93,-982.28 189.93,-943.01 189.93,-943.01 189.93,-937.01 195.93,-931.01 201.93,-931.01 201.93,-931.01 316.07,-931.01 316.07,-931.01 322.07,-931.01 328.07,-937.01 328.07,-943.01 328.07,-943.01 328.07,-982.28 328.07,-982.28 328.07,-988.28 322.07,-994.28 316.07,-994.28"/>
<text xml:space="preserve" text-anchor="middle" x="259" y="-977.12" font-family="SimSun" font-size="12.00">真实病例（独立测试）</text>
<text xml:space="preserve" text-anchor="middle" x="259" y="-959.87" font-family="SimSun" font-size="12.00">系统抽取脱敏 2000+ 份</text>
<text xml:space="preserve" text-anchor="middle" x="259" y="-942.62" font-family="SimSun" font-size="12.00">伦理审批</text>
</g>
<!-- data_src&#45;&gt;real -->
<g id="edge2" class="edge">
<title>data_src&#45;&gt;real</title>
<path fill="none" stroke="#333333" stroke-width="1.4" d="M187.01,-1079.29C199.54,-1059.16 218.23,-1029.14 233.43,-1004.73"/>
<polygon fill="#333333" stroke="#333333" stroke-width="1.4" points="236.26,-1006.8 238.58,-996.46 230.32,-1003.1 236.26,-1006.8"/>
</g>
<!-- gen -->
<g id="node4" class="node">
<title>gen</title>
<path fill="white" stroke="#333333" stroke-width="1.2" d="M317.57,-836.39C317.57,-836.39 182.43,-836.39 182.43,-836.39 176.43,-836.39 170.43,-830.39 170.43,-824.39 170.43,-824.39 170.43,-785.12 170.43,-785.12 170.43,-779.12 176.43,-773.12 182.43,-773.12 182.43,-773.12 317.57,-773.12 317.57,-773.12 323.57,-773.12 329.57,-779.12 329.57,-785.12 329.57,-785.12 329.57,-824.39 329.57,-824.39 329.57,-830.39 323.57,-836.39 317.57,-836.39"/>
<text xml:space="preserve" text-anchor="middle" x="250" y="-819.23" font-family="SimSun" font-size="12.00">语音与文本数据生成</text>
<text xml:space="preserve" text-anchor="middle" x="250" y="-801.98" font-family="SimSun" font-size="12.00">金标准病历 + 自然口语录音</text>
<text xml:space="preserve" text-anchor="middle" x="250" y="-784.73" font-family="SimSun" font-size="12.00">回顾性复刻 + 前瞻性采集</text>
</g>
<!-- virtual&#45;&gt;gen -->
<g id="edge3" class="edge">
<title>virtual&#45;&gt;gen</title>
<path fill="none" stroke="#333333" stroke-width="1.4" d="M117.99,-930.48C143.96,-905.94 180.31,-871.6 208.3,-845.16"/>
<polygon fill="#333333" stroke="#333333" stroke-width="1.4" points="210.66,-847.74 215.52,-838.33 205.85,-842.65 210.66,-847.74"/>
</g>
<!-- real&#45;&gt;gen -->
<g id="edge4" class="edge">
<title>real&#45;&gt;gen</title>
<path fill="none" stroke="#333333" stroke-width="1.4" d="M257.2,-930.48C255.85,-907 253.97,-874.55 252.48,-848.63"/>
<polygon fill="#333333" stroke="#333333" stroke-width="1.4" points="255.99,-848.77 251.92,-838.99 249,-849.17 255.99,-848.77"/>
</g>
<!-- prep -->
<g id="node5" class="node">
<title>prep</title>
<path fill="white" stroke="#333333" stroke-width="1.2" d="M315.57,-722.12C315.57,-722.12 192.43,-722.12 192.43,-722.12 186.43,-722.12 180.43,-716.12 180.43,-710.12 180.43,-710.12 180.43,-670.85 180.43,-670.85 180.43,-664.85 186.43,-658.85 192.43,-658.85 192.43,-658.85 315.57,-658.85 315.57,-658.85 321.57,-658.85 327.57,-664.85 327.57,-670.85 327.57,-670.85 327.57,-710.12 327.57,-710.12 327.57,-716.12 321.57,-722.12 315.57,-722.12"/>
<text xml:space="preserve" text-anchor="middle" x="254" y="-704.96" font-family="SimSun" font-size="12.00">数据预处理与标准化</text>
<text xml:space="preserve" text-anchor="middle" x="254" y="-687.71" font-family="SimSun" font-size="12.00">语音降噪/切分/PCM统一</text>
<text xml:space="preserve" text-anchor="middle" x="254" y="-670.46" font-family="SimSun" font-size="12.00">文本术语映射 + 错词纠错</text>
</g>
<!-- gen&#45;&gt;prep -->
<g id="edge5" class="edge">
<title>gen&#45;&gt;prep</title>
<path fill="none" stroke="#333333" stroke-width="1.4" d="M251.1,-772.78C251.53,-760.88 252.02,-747.07 252.48,-734.25"/>
<polygon fill="#333333" stroke="#333333" stroke-width="1.4" points="255.97,-734.6 252.82,-724.48 248.97,-734.35 255.97,-734.6"/>
</g>
<!-- split -->
<g id="node6" class="node">
<title>split</title>
<path fill="white" stroke="#333333" stroke-width="1.2" d="M303.7,-599.22C303.7,-599.22 226.3,-599.22 226.3,-599.22 220.3,-599.22 214.3,-593.22 214.3,-587.22 214.3,-587.22 214.3,-547.95 214.3,-547.95 214.3,-541.95 220.3,-535.95 226.3,-535.95 226.3,-535.95 303.7,-535.95 303.7,-535.95 309.7,-535.95 315.7,-541.95 315.7,-547.95 315.7,-547.95 315.7,-587.22 315.7,-587.22 315.7,-593.22 309.7,-599.22 303.7,-599.22"/>
<text xml:space="preserve" text-anchor="middle" x="265" y="-582.06" font-family="SimSun" font-size="12.00">数据集划分</text>
<text xml:space="preserve" text-anchor="middle" x="265" y="-564.81" font-family="SimSun" font-size="12.00">虚拟→训练/验证</text>
<text xml:space="preserve" text-anchor="middle" x="265" y="-547.56" font-family="SimSun" font-size="12.00">真实→测试</text>
</g>
<!-- prep&#45;&gt;split -->
<g id="edge6" class="edge">
<title>prep&#45;&gt;split</title>
<path fill="none" stroke="#333333" stroke-width="1.4" d="M256.83,-658.35C258.13,-644.11 259.69,-627 261.09,-611.56"/>
<polygon fill="#333333" stroke="#333333" stroke-width="1.4" points="264.56,-612 261.98,-601.73 257.59,-611.37 264.56,-612"/>
</g>
<!-- asr -->
<g id="node7" class="node">
<title>asr</title>
<path fill="white" stroke="#333333" stroke-width="1.2" d="M595.33,-439.33C595.33,-439.33 482.68,-439.33 482.68,-439.33 476.68,-439.33 470.68,-433.33 470.68,-427.33 470.68,-427.33 470.68,-370.81 470.68,-370.81 470.68,-364.81 476.68,-358.81 482.68,-358.81 482.68,-358.81 595.33,-358.81 595.33,-358.81 601.33,-358.81 607.33,-364.81 607.33,-370.81 607.33,-370.81 607.33,-427.33 607.33,-427.33 607.33,-433.33 601.33,-439.33 595.33,-439.33"/>
<text xml:space="preserve" text-anchor="middle" x="539" y="-422.17" font-family="SimSun" font-size="12.00">ASR 专科优化</text>
<text xml:space="preserve" text-anchor="middle" x="539" y="-404.92" font-family="SimSun" font-size="12.00">通用ASR + 专科术语库</text>
<text xml:space="preserve" text-anchor="middle" x="539" y="-387.67" font-family="SimSun" font-size="12.00">领域自适应微调</text>
<text xml:space="preserve" text-anchor="middle" x="539" y="-370.42" font-family="SimSun" font-size="12.00">降低 WER/SER</text>
</g>
<!-- split&#45;&gt;asr -->
<g id="edge15" class="edge">
<title>split&#45;&gt;asr</title>
<path fill="none" stroke="#333333" stroke-width="1.4" d="M316.22,-535.46C357.63,-510.29 416.55,-474.49 463.39,-446.02"/>
<polygon fill="#333333" stroke="#333333" stroke-width="1.4" points="464.96,-449.16 471.69,-440.98 461.32,-443.18 464.96,-449.16"/>
</g>
<!-- llm -->
<g id="node9" class="node">
<title>llm</title>
<path fill="white" stroke="#333333" stroke-width="1.2" d="M795.33,-307.81C795.33,-307.81 622.67,-307.81 622.67,-307.81 616.67,-307.81 610.67,-301.81 610.67,-295.81 610.67,-295.81 610.67,-239.29 610.67,-239.29 610.67,-233.29 616.67,-227.29 622.67,-227.29 622.67,-227.29 795.33,-227.29 795.33,-227.29 801.33,-227.29 807.33,-233.29 807.33,-239.29 807.33,-239.29 807.33,-295.81 807.33,-295.81 807.33,-301.81 801.33,-307.81 795.33,-307.81"/>
<text xml:space="preserve" text-anchor="middle" x="709" y="-290.65" font-family="SimSun" font-size="12.00">LLM 槽位信息提取（非自由生成）</text>
<text xml:space="preserve" text-anchor="middle" x="709" y="-273.4" font-family="SimSun" font-size="12.00">输入：规范化文本 + 槽位定义</text>
<text xml:space="preserve" text-anchor="middle" x="709" y="-256.15" font-family="SimSun" font-size="12.00">输出：槽位→证据片段（JSON）</text>
<text xml:space="preserve" text-anchor="middle" x="709" y="-238.9" font-family="SimSun" font-size="12.00">显式禁止虚构/扩写</text>
</g>
<!-- asr&#45;&gt;llm -->
<g id="edge7" class="edge">
<title>asr&#45;&gt;llm</title>
<path fill="none" stroke="#333333" stroke-width="1.4" d="M590.93,-358.51C608.72,-344.95 628.81,-329.65 647.3,-315.56"/>
<polygon fill="#333333" stroke="#333333" stroke-width="1.4" points="649.28,-318.45 655.12,-309.6 645.04,-312.88 649.28,-318.45"/>
</g>
<!-- tmpl -->
<g id="node8" class="node">
<title>tmpl</title>
<path fill="white" stroke="#333333" stroke-width="1.2" d="M786.7,-439.33C786.7,-439.33 655.3,-439.33 655.3,-439.33 649.3,-439.33 643.3,-433.33 643.3,-427.33 643.3,-427.33 643.3,-370.81 643.3,-370.81 643.3,-364.81 649.3,-358.81 655.3,-358.81 655.3,-358.81 786.7,-358.81 786.7,-358.81 792.7,-358.81 798.7,-364.81 798.7,-370.81 798.7,-370.81 798.7,-427.33 798.7,-427.33 798.7,-433.33 792.7,-439.33 786.7,-439.33"/>
<text xml:space="preserve" text-anchor="middle" x="721" y="-422.17" font-family="SimSun" font-size="12.00">种植科专属模板库设计</text>
<text xml:space="preserve" text-anchor="middle" x="721" y="-404.92" font-family="SimSun" font-size="12.00">覆盖初诊/复诊/术前/术后等</text>
<text xml:space="preserve" text-anchor="middle" x="721" y="-387.67" font-family="SimSun" font-size="12.00">7大类 18核心槽位</text>
<text xml:space="preserve" text-anchor="middle" x="721" y="-370.42" font-family="SimSun" font-size="12.00">数据类型/必填/多值约束</text>
</g>
<!-- tmpl&#45;&gt;llm -->
<g id="edge8" class="edge">
<title>tmpl&#45;&gt;llm</title>
<path fill="none" stroke="#333333" stroke-width="1.4" d="M717.33,-358.51C716.22,-346.44 714.97,-332.99 713.79,-320.25"/>
<polygon fill="#333333" stroke="#333333" stroke-width="1.4" points="717.29,-320.06 712.88,-310.43 710.32,-320.71 717.29,-320.06"/>
</g>
<!-- fill -->
<g id="node10" class="node">
<title>fill</title>
<path fill="white" stroke="#333333" stroke-width="1.2" d="M783.2,-176.29C783.2,-176.29 660.8,-176.29 660.8,-176.29 654.8,-176.29 648.8,-170.29 648.8,-164.29 648.8,-164.29 648.8,-142.27 648.8,-142.27 648.8,-136.27 654.8,-130.27 660.8,-130.27 660.8,-130.27 783.2,-130.27 783.2,-130.27 789.2,-130.27 795.2,-136.27 795.2,-142.27 795.2,-142.27 795.2,-164.29 795.2,-164.29 795.2,-170.29 789.2,-176.29 783.2,-176.29"/>
<text xml:space="preserve" text-anchor="middle" x="722" y="-159.13" font-family="SimSun" font-size="12.00">模板填充生成结构化病历</text>
<text xml:space="preserve" text-anchor="middle" x="722" y="-141.88" font-family="SimSun" font-size="12.00">（草稿）</text>
</g>
<!-- llm&#45;&gt;fill -->
<g id="edge9" class="edge">
<title>llm&#45;&gt;fill</title>
<path fill="none" stroke="#333333" stroke-width="1.4" d="M713.58,-226.97C715.03,-214.5 716.61,-200.85 718.01,-188.77"/>
<polygon fill="#333333" stroke="#333333" stroke-width="1.4" points="721.47,-189.31 719.14,-178.97 714.51,-188.5 721.47,-189.31"/>
</g>
<!-- train -->
<g id="node11" class="node">
<title>train</title>
<path fill="white" stroke="#333333" stroke-width="1.2" d="M805.08,-79.27C805.08,-79.27 654.92,-79.27 654.92,-79.27 648.92,-79.27 642.92,-73.27 642.92,-67.27 642.92,-67.27 642.92,-28 642.92,-28 642.92,-22 648.92,-16 654.92,-16 654.92,-16 805.08,-16 805.08,-16 811.08,-16 817.08,-22 817.08,-28 817.08,-28 817.08,-67.27 817.08,-67.27 817.08,-73.27 811.08,-79.27 805.08,-79.27"/>
<text xml:space="preserve" text-anchor="middle" x="730" y="-62.11" font-family="SimSun" font-size="12.00">协同训练与优化</text>
<text xml:space="preserve" text-anchor="middle" x="730" y="-44.86" font-family="SimSun" font-size="12.00">先ASR/LLM单模块→再端到端</text>
<text xml:space="preserve" text-anchor="middle" x="730" y="-27.61" font-family="SimSun" font-size="12.00">超参搜索 + TensorBoard监控</text>
</g>
<!-- fill&#45;&gt;train -->
<g id="edge10" class="edge">
<title>fill&#45;&gt;train</title>
<path fill="none" stroke="#333333" stroke-width="1.4" d="M723.74,-129.79C724.6,-118.58 725.68,-104.63 726.69,-91.48"/>
<polygon fill="#333333" stroke="#333333" stroke-width="1.4" points="730.16,-92.08 727.44,-81.84 723.18,-91.54 730.16,-92.08"/>
</g>
<!-- sys -->
<g id="node12" class="node">
<title>sys</title>
<path fill="white" stroke="#333333" stroke-width="1.2" d="M794.58,-1134.43C794.58,-1134.43 539.42,-1134.43 539.42,-1134.43 533.42,-1134.43 527.42,-1128.43 527.42,-1122.43 527.42,-1122.43 527.42,-1083.16 527.42,-1083.16 527.42,-1077.16 533.42,-1071.16 539.42,-1071.16 539.42,-1071.16 794.58,-1071.16 794.58,-1071.16 800.58,-1071.16 806.58,-1077.16 806.58,-1083.16 806.58,-1083.16 806.58,-1122.43 806.58,-1122.43 806.58,-1128.43 800.58,-1134.43 794.58,-1134.43"/>
<text xml:space="preserve" text-anchor="middle" x="667" y="-1117.27" font-family="SimSun" font-size="12.00">系统功能集成</text>
<text xml:space="preserve" text-anchor="middle" x="667" y="-1100.02" font-family="SimSun" font-size="12.00">语音采集→ASR→文本规范→LLM提取→模板生成</text>
<text xml:space="preserve" text-anchor="middle" x="667" y="-1082.77" font-family="SimSun" font-size="12.00">人机协同审核→结构化存储/导出</text>
</g>
<!-- train&#45;&gt;sys -->
<g id="edge16" class="edge">
<title>train&#45;&gt;sys</title>
<path fill="none" stroke="#333333" stroke-width="1.4" d="M809.45,-79.82C837.41,-96.37 862,-120.08 862,-152.28 862,-963.65 862,-963.65 862,-963.65 862,-1011.27 822.8,-1043.96 779.54,-1065.54"/>
<polygon fill="#333333" stroke="#333333" stroke-width="1.4" points="778.23,-1062.29 770.7,-1069.74 781.23,-1068.61 778.23,-1062.29"/>
</g>
<!-- retro -->
<g id="node13" class="node">
<title>retro</title>
<path fill="white" stroke="#333333" stroke-width="1.2" d="M561.7,-1017.91C561.7,-1017.91 376.3,-1017.91 376.3,-1017.91 370.3,-1017.91 364.3,-1011.91 364.3,-1005.91 364.3,-1005.91 364.3,-919.39 364.3,-919.39 364.3,-913.39 370.3,-907.39 376.3,-907.39 376.3,-907.39 561.7,-907.39 561.7,-907.39 567.7,-907.39 573.7,-913.39 573.7,-919.39 573.7,-919.39 573.7,-1005.91 573.7,-1005.91 573.7,-1011.91 567.7,-1017.91 561.7,-1017.91"/>
<text xml:space="preserve" text-anchor="middle" x="469" y="-1000.75" font-family="SimSun" font-size="12.00">回顾性测试</text>
<text xml:space="preserve" text-anchor="middle" x="469" y="-983.5" font-family="SimSun" font-size="12.00">金标准真实病历对照</text>
<text xml:space="preserve" text-anchor="middle" x="469" y="-966.25" font-family="SimSun" font-size="12.00">Precision/Recall/F1</text>
<text xml:space="preserve" text-anchor="middle" x="469" y="-953.5" font-family="SimSun" font-size="12.00">信息覆盖率</text>
<text xml:space="preserve" text-anchor="middle" x="469" y="-936.25" font-family="SimSun" font-size="12.00">文本相似度（BERTScore/ROUGE）</text>
<text xml:space="preserve" text-anchor="middle" x="469" y="-919" font-family="SimSun" font-size="12.00">术语规范率/幻觉率</text>
</g>
<!-- sys&#45;&gt;retro -->
<g id="edge11" class="edge">
<title>sys&#45;&gt;retro</title>
<path fill="none" stroke="#333333" stroke-width="1.4" d="M622.56,-1070.79C603.21,-1057.29 579.81,-1040.96 557.17,-1025.17"/>
<polygon fill="#333333" stroke="#333333" stroke-width="1.4" points="559.47,-1022.51 549.27,-1019.65 555.47,-1028.25 559.47,-1022.51"/>
</g>
<!-- pros -->
<g id="node14" class="node">
<title>pros</title>
<path fill="white" stroke="#333333" stroke-width="1.2" d="M794.7,-1020.16C794.7,-1020.16 621.3,-1020.16 621.3,-1020.16 615.3,-1020.16 609.3,-1014.16 609.3,-1008.16 609.3,-1008.16 609.3,-917.14 609.3,-917.14 609.3,-911.14 615.3,-905.14 621.3,-905.14 621.3,-905.14 794.7,-905.14 794.7,-905.14 800.7,-905.14 806.7,-911.14 806.7,-917.14 806.7,-917.14 806.7,-1008.16 806.7,-1008.16 806.7,-1014.16 800.7,-1020.16 794.7,-1020.16"/>
<text xml:space="preserve" text-anchor="middle" x="708" y="-1003" font-family="SimSun" font-size="12.00">前瞻性临床队列</text>
<text xml:space="preserve" text-anchor="middle" x="708" y="-985.75" font-family="SimSun" font-size="12.00">30名医师随机分组</text>
<text xml:space="preserve" text-anchor="middle" x="708" y="-968.5" font-family="SimSun" font-size="12.00">试验组（系统）vs 对照组（键盘）</text>
<text xml:space="preserve" text-anchor="middle" x="708" y="-951.25" font-family="SimSun" font-size="12.00">3个月</text>
<text xml:space="preserve" text-anchor="middle" x="708" y="-934" font-family="SimSun" font-size="12.00">效率/质量/安全/满意度</text>
<text xml:space="preserve" text-anchor="middle" x="708" y="-916.75" font-family="SimSun" font-size="12.00">统计检验（t/Wilcoxon/卡方）</text>
</g>
<!-- sys&#45;&gt;pros -->
<g id="edge12" class="edge">
<title>sys&#45;&gt;pros</title>
<path fill="none" stroke="#333333" stroke-width="1.4" d="M676.2,-1070.79C679.63,-1059.23 683.68,-1045.6 687.71,-1032.01"/>
<polygon fill="#333333" stroke="#333333" stroke-width="1.4" points="690.99,-1033.26 690.48,-1022.68 684.28,-1031.27 690.99,-1033.26"/>
</g>
<!-- eval -->
<g id="node15" class="node">
<title>eval</title>
<path fill="white" stroke="#333333" stroke-width="1.2" d="M759.08,-836.39C759.08,-836.39 608.92,-836.39 608.92,-836.39 602.92,-836.39 596.92,-830.39 596.92,-824.39 596.92,-824.39 596.92,-785.12 596.92,-785.12 596.92,-779.12 602.92,-773.12 608.92,-773.12 608.92,-773.12 759.08,-773.12 759.08,-773.12 765.08,-773.12 771.08,-779.12 771.08,-785.12 771.08,-785.12 771.08,-824.39 771.08,-824.39 771.08,-830.39 765.08,-836.39 759.08,-836.39"/>
<text xml:space="preserve" text-anchor="middle" x="684" y="-819.23" font-family="SimSun" font-size="12.00">多维度评估</text>
<text xml:space="preserve" text-anchor="middle" x="684" y="-801.98" font-family="SimSun" font-size="12.00">客观指标 + 主观Likert</text>
<text xml:space="preserve" text-anchor="middle" x="684" y="-784.73" font-family="SimSun" font-size="12.00">幻觉发生率 + 总耗时/修改次数</text>
</g>
<!-- pros&#45;&gt;eval -->
<g id="edge17" class="edge">
<title>pros&#45;&gt;eval</title>
<path fill="none" stroke="#333333" stroke-width="1.4" d="M699.27,-904.93C696.41,-886.34 693.28,-866.02 690.6,-848.63"/>
<polygon fill="#333333" stroke="#333333" stroke-width="1.4" points="694.09,-848.29 689.11,-838.93 687.17,-849.35 694.09,-848.29"/>
</g>
<!-- ablate -->
<g id="node16" class="node">
<title>ablate</title>
<path fill="white" stroke="#333333" stroke-width="1.2" d="M727.58,-722.12C727.58,-722.12 634.42,-722.12 634.42,-722.12 628.42,-722.12 622.42,-716.12 622.42,-710.12 622.42,-710.12 622.42,-670.85 622.42,-670.85 622.42,-664.85 628.42,-658.85 634.42,-658.85 634.42,-658.85 727.58,-658.85 727.58,-658.85 733.58,-658.85 739.58,-664.85 739.58,-670.85 739.58,-670.85 739.58,-710.12 739.58,-710.12 739.58,-716.12 733.58,-722.12 727.58,-722.12"/>
<text xml:space="preserve" text-anchor="middle" x="681" y="-704.96" font-family="SimSun" font-size="12.00">消融实验</text>
<text xml:space="preserve" text-anchor="middle" x="681" y="-687.71" font-family="SimSun" font-size="12.00">模板约束+信息提取</text>
<text xml:space="preserve" text-anchor="middle" x="681" y="-670.46" font-family="SimSun" font-size="12.00">vs 自由生成LLM</text>
</g>
<!-- eval&#45;&gt;ablate -->
<g id="edge13" class="edge">
<title>eval&#45;&gt;ablate</title>
<path fill="none" stroke="#333333" stroke-width="1.4" d="M683.17,-772.78C682.85,-760.88 682.49,-747.07 682.14,-734.25"/>
<polygon fill="#333333" stroke="#333333" stroke-width="1.4" points="685.65,-734.38 681.88,-724.48 678.65,-734.57 685.65,-734.38"/>
</g>
<!-- iter -->
<g id="node17" class="node">
<title>iter</title>
<path fill="white" stroke="#333333" stroke-width="1.2" d="M736.2,-607.85C736.2,-607.85 595.8,-607.85 595.8,-607.85 589.8,-607.85 583.8,-601.85 583.8,-595.85 583.8,-595.85 583.8,-539.33 583.8,-539.33 583.8,-533.33 589.8,-527.33 595.8,-527.33 595.8,-527.33 736.2,-527.33 736.2,-527.33 742.2,-527.33 748.2,-533.33 748.2,-539.33 748.2,-539.33 748.2,-595.85 748.2,-595.85 748.2,-601.85 742.2,-607.85 736.2,-607.85"/>
<text xml:space="preserve" text-anchor="middle" x="666" y="-590.69" font-family="SimSun" font-size="12.00">迭代优化</text>
<text xml:space="preserve" text-anchor="middle" x="666" y="-573.44" font-family="SimSun" font-size="12.00">更新术语库/错词库/模板槽位</text>
<text xml:space="preserve" text-anchor="middle" x="666" y="-556.19" font-family="SimSun" font-size="12.00">微调模型参数</text>
<text xml:space="preserve" text-anchor="middle" x="666" y="-538.94" font-family="SimSun" font-size="12.00">降低审核修改率</text>
</g>
<!-- ablate&#45;&gt;iter -->
<g id="edge14" class="edge">
<title>ablate&#45;&gt;iter</title>
<path fill="none" stroke="#333333" stroke-width="1.4" d="M677.14,-658.35C675.69,-646.67 674,-633.07 672.38,-620.04"/>
<polygon fill="#333333" stroke="#333333" stroke-width="1.4" points="675.89,-619.9 671.19,-610.41 668.95,-620.76 675.89,-619.9"/>
</g>
<!-- iter&#45;&gt;asr -->
<g id="edge18" class="edge">
<title>iter&#45;&gt;asr</title>
<path fill="none" stroke="#333333" stroke-width="1.4" stroke-dasharray="5,2" d="M635.9,-527.13C618.16,-503.86 595.55,-474.22 576.64,-449.42"/>
<polygon fill="#333333" stroke="#333333" stroke-width="1.4" points="579.45,-447.34 570.61,-441.51 573.89,-451.59 579.45,-447.34"/>
<text xml:space="preserve" text-anchor="middle" x="628.13" y="-489.03" font-family="SimSun" font-size="14.00">反馈</text>
</g>
</g>
</svg>
